PathFileType	4	(X/Y/Z)	C:/Users/beibeiliu/ov580/test_trc\sequence.29_training_dense_left.trc
DataRate	CameraRate	NumFrames	NumMarkers	Units	OrigDataRate	OrigDataStartFrame	OrigNumFrames
120	120	10	19	mm	120	51	200
Frame#	Time	ThumbCMC			ThumbMCP			ThumbIP			ThumbTip			IndexMCP			IndexPIP			IndexTip			MiddleMCP			MiddlePIP			MiddleTip			RingMCP			RingPIP			RingTip			PinkyMCP			PinkyPIP			PinkyTip			BackHand1			BackHand2			BackHand3	
		X0	Y0	Z0	X1	Y1	Z1	X2	Y2	Z2	X3	Y3	Z3	X4	Y4	Z4	X5	Y5	Z5	X6	Y6	Z6	X7	Y7	Z7	X8	Y8	Z8	X9	Y9	Z9	X10	Y10	Z10	X11	Y11	Z11	X12	Y12	Z12	X13	Y13	Z13	X14	Y14	Z14	X15	Y15	Z15	X16	Y16	Z16	X17	Y17	Z17	X18	Y18	Z18	
50	0.416667	-185.788	72.0806	156.291	-163.163	82.187	141.255	-147.549	92.3398	124.545	-134.28	104.194	109.727	-168.7	50.8108	85.4613	-154.567	42.9194	60.294	-141.201	40.0826	42.1581	-171.545	22.7142	80.4563	-156.566	14.3872	57.9168	-139.635	4.27924	38.4748	-173.607	3.92434	89.4183	-158.077	-9.04675	67.5368	-140.42	-16.3391	47.0416	-173.59	-15.2909	104.319	-163.665	-27.6863	90.998	-154.148	-37.2367	71.4198	-204.334	13.6067	129.818	-217.997	17.644	152.047	-207.165	45.4895	135.531	
51	0.425	-185.415	71.8674	155.977	-163.237	84.7644	143.228	-147.105	91.2108	124.189	-132.588	103.102	106.169	-168.935	47.6287	82.6313	-154.379	44.1363	60.6732	-139.605	36.1582	39.276	-171.843	22.8286	80.2431	-158.338	17.5312	59.3455	-137.353	2.4464	34.5867	-172.86	4.99771	87.505	-158.248	-5.6902	66.7274	-142.843	-17.6082	50.2252	-175.704	-17.1757	107.135	-161.535	-27.7764	87.4992	-150.221	-36.4639	70.0041	-202.906	14.1758	128.107	-217.482	15.7509	153.683	-207.131	47.2912	134.101	
52	0.433333	-185.599	67.6711	152.076	-164.864	80.5703	143.051	-145.682	94.1433	118.418	-132.527	101.293	105.863	-169.528	44.7736	83.3337	-155.014	41.8747	61.5026	-139.147	34.2721	40.2095	-171.099	19.3479	76.5003	-157.86	16.2923	58.2625	-137.268	7.7043	35.7616	-173.506	-0.161111	90.2255	-158.419	-6.44181	67.709	-141.239	-17.7258	48.4056	-174.152	-17.7627	105.822	-160.134	-28.2035	87.1356	-149.847	-42.3407	67.7112	-201.213	13.157	127.311	-219.909	15.1235	154.677	-206.041	46.1941	132.012	
53	0.441667	-185.849	70.5566	154.218	-162.736	83.0662	138.088	-145.456	94.5665	119.546	-132.824	99.8379	107.287	-169.479	45.9309	83.6266	-153.571	43.6753	60.6317	-140.587	38.5757	42.4419	-169.993	23.8869	76.2599	-155.405	14.8623	55.4258	-137.134	5.25001	36.0219	-171.638	4.57436	86.7551	-158.33	-7.46803	69.528	-142.879	-14.0166	50.1784	-174.115	-14.1115	104.843	-160.395	-25.198	87.0662	-150.683	-38.4066	69.4161	-205.297	10.8889	130.183	-218.224	16.7462	152.673	-205.691	47.3214	131.746	
54	0.45	-183.793	70.6647	150.002	-163.015	81.1374	140.66	-145.501	93.6542	121.008	-132.245	99.6971	107.932	-168.544	45.8176	82.8595	-152.176	43.6106	58.1226	-140.29	38.4007	42.0219	-171.234	19.5521	79.2177	-153.704	15.0866	56.0196	-135.899	6.81569	35.1426	-171.878	0.116974	89.9697	-156.684	-10.8593	68.3146	-140.733	-14.8908	50.4206	-172.297	-16.1616	103.777	-159.921	-26.6923	88.5218	-146.816	-37.82	70.7249	-203.332	10.988	128.629	-216.11	15.1803	155.759	-204.222	46.797	134.557	
55	0.458333	-183.064	68.1736	151.589	-160.349	82.189	138.485	-144.561	89.8619	121.388	-130.931	103.996	107.236	-169.054	44.8029	84.4765	-152.408	42.3082	60.922	-138.977	36.6967	40.8446	-170.468	22.4367	78.8655	-154.554	16.6129	55.7153	-138.533	5.38427	38.2969	-172.508	3.93261	90.414	-155.971	-10.1814	66.4315	-140.643	-16.0949	50.0299	-173.239	-17.14	105.584	-160.878	-25.1523	90.1118	-144.702	-42.2214	70.42	-201.386	14.2945	129.5	-215.104	19.1274	152.505	-207.114	46.3285	135.914	
56	0.466667	-182.429	70.4283	149.153	-160.834	83.8978	138.245	-144.51	94.2797	119.94	-132.113	103.557	108.44	-167.478	47.123	81.4262	-152.033	45.2641	60.8625	-139.318	39.6798	41.8129	-169.597	22.0913	76.6058	-153.2	13.9119	55.4391	-135.396	3.42914	35.3926	-171.787	3.21461	90.3644	-155.201	-9.923	66.8182	-137.846	-14.6703	47.4691	-173.075	-13.2176	107.383	-160.915	-24.6354	90.8264	-146.082	-41.1387	71.4058	-200.862	10.0447	125.506	-217.604	16.8344	154.216	-202.589	47.5086	132.748	
57	0.475	-183.642	69.0496	153.174	-162.209	80.6921	140.373	-143.636	88.9183	119.193	-131.202	98.7653	106.283	-165.06	47.1573	80.0015	-151.42	41.988	60.1038	-137.194	37.5493	39.9447	-169.888	20.9535	77.3456	-155.843	14.5973	59.2052	-134.137	4.22611	34.898	-169.853	2.67664	85.6897	-156.355	-6.4968	66.7834	-140.089	-13.97	50.73	-172.679	-15.2563	106.448	-159.237	-29.0081	88.7627	-149.015	-41.1635	71.7151	-200.21	11.1051	129.122	-215.876	21.3391	151.922	-204.71	46.4008	134.609	
58	0.483333	-183.769	73.4896	153.387	-161.504	81.1121	140.129	-146.094	91.6453	122.658	-131.086	100.423	105.352	-167.118	47.0475	83.0673	-152.798	42.9515	61.8946	-136.4	35.9963	38.066	-170.496	21.2684	80.4756	-152.244	13.7553	55.7548	-134.54	5.30878	34.7438	-171.922	2.64589	89.5277	-155.944	-8.12376	68.104	-140.721	-14.1045	51.5133	-172.901	-15.8853	106.23	-160.041	-25.1104	90.1669	-146.927	-39.671	70.5365	-199.559	15.5791	125.938	-216.145	19.6793	153.989	-204.478	45.9558	133.271	
59	0.491667	-184.522	74.4059	154.432	-161.932	82.4054	140.391	-146.122	92.0183	122.262	-130.751	98.5254	104.647	-165.833	49.3547	79.2511	-150.532	47.4166	58.3616	-139.401	37.3028	42.2064	-170.308	20.4899	77.5705	-155.836	15.9766	58.6102	-136.905	3.0823	38.203	-171.218	1.9831	86.8352	-155.508	-5.84219	66.8921	-138.863	-16.8971	47.4815	-173.272	-14.1141	108.328	-158.073	-28.1003	88.1032	-147.118	-37.4857	73.3852	-203.404	11.9156	130.697	-217.868	18.4089	153.057	-204.852	50.2454	133.212	
